<svg version="1" xmlns="http://www.w3.org/2000/svg" width="2344" height="2344" viewBox="0 0 1758.000000 1758.000000"><path d="M942.5 80.5c-32.8 5.1-63.6 21.4-91.7 48.4-25.4 24.3-41.4 51-53.6 89.1-9.3 29.1-15.9 68.7-19.8 117.8-1.5 19.5-3.6 97.5-2.7 99.9.3.9 2.7 1.3 6.7 1.3h6.1l.1-37.3c.2-39.8 1.3-63.2 4.5-92.7 6.5-59.7 18.6-102.6 37.8-134.2 24.3-40.2 68.3-72.3 108.6-79.3 13.4-2.3 43-2.5 53.1-.2 17.9 3.9 33.1 12.2 46 25.1 10 10.1 14.7 17.4 19 30.1 3.6 10.7 4.6 31.2 2 42.8-4.5 20.3-19.5 36.2-39.5 42.1-7 2-22.8 2.1-30.4.1-18.2-4.7-29.2-15.6-33.3-33.1-4.2-17.8 1.9-33.5 15.7-40.4 6.4-3.3 9.1-3.6 17-1.9 4.6 1 6.3 2.2 13.9 9.5 4.8 4.6 9.5 8.4 10.4 8.4.9 0 2.1-1.2 2.7-2.8 3.2-8.4-9-22-23.3-25.8-10.4-2.7-23.2-1-31.2 4.4-8.4 5.6-17.6 23.2-18.4 35-1.3 18.6 11.2 41.6 27.9 51.5 10.3 6 18.4 8.1 32.4 8.1 14.5.1 20-1.1 32.4-7.2 23.5-11.4 37.1-35.5 37.1-65.8 0-18.4-3.1-29.7-12.7-45.7-5.8-9.7-19.3-23.9-28.3-29.7-24.5-15.7-57.9-22.3-88.5-17.5zM482.3 112.1c-40.2 3.9-74.8 23.3-95 53.5-10.2 15.3-15 30.2-15.9 49.4-1.5 30.9 11.1 54.5 35.1 66 11 5.2 17.1 6.5 30 6.4 13.7-.1 23.8-3.1 34.6-10.2 17.2-11.3 25.2-25.8 25.3-45.7.1-16.1-4.7-28.7-14.9-39.1-12.9-13.2-32-18.3-51.6-13.8-17.2 3.9-30.9 20.1-30.9 36.6 0 5.4.8 5.8 5.7 2.9 2.2-1.4 4.3-4.3 7.1-10.3 4.4-9.2 8.6-13.6 16.1-17.1 6.8-3.2 23.3-3.1 31.4.2 10.9 4.3 18.5 12 22.8 22.8 1.9 4.8 2.3 7.7 2.4 16.8 0 13-1.1 17.2-6.8 25.7-7.8 11.5-21.5 18.5-38.2 19.5-29.7 1.7-50.2-14.3-56.1-43.7-5.1-25.6 5.8-56.5 27.2-77.1 27.9-26.7 69.3-37.2 113.2-28.8 36.8 7.1 73.6 31 99.5 64.6 20.6 26.9 39.7 68.1 54.6 118 11.3 37.9 22.9 96.2 25.7 129 .5 6.2 1 8.3 2.1 8.3 2.4 0 10.3-2.2 10.3-2.9 0-8.2-6.9-53.5-11.6-76.5-16-77.9-37.8-134.1-68.9-178-30-42.4-79.4-72-127.6-76.5-12.5-1.2-13.6-1.2-25.6 0z"/><path d="M1347 255.9c-7.2 1-13.8 4.4-25.5 13.1-5.2 3.8-9.9 7-10.5 7-.5 0-3.5-1.6-6.6-3.6-11.2-7.2-22.8-11.4-31.5-11.4-4.7 0-13 2.9-21 7.4-6.8 3.8-13.4 10-18.2 16.9-2.3 3.4-4.5 6.5-4.8 7-.4.5-4-.2-8-1.6-11.1-3.8-19-5-28-4.4-10.4.7-19.9 5.1-29 13.5-5.8 5.4-6.9 7-10.4 15.7l-3.9 9.7-3.6-.6c-9.4-1.5-24.8-1.8-30.5-.6-17.6 3.6-31.7 18.7-36.5 39.2l-1.7 7.1-7.8-.2c-4.4-.1-8.3-.5-8.7-.7-1.4-.9-13 2.6-19.7 5.9-8.8 4.3-17.9 13.3-21.9 21.7-2.8 6.1-4.1 11.1-6 25l-.7 5.5-9.7.6c-10.9.7-17.8 3.3-26.3 9.9-12.2 9.4-16.4 19.1-17.4 40l-.6 13.4-3.5 1.3c-1.9.7-7 2.3-11.2 3.5l-7.7 2.3 10.1 11c13.3 14.4 18.8 22 18.8 26 0 5.2 2.5 12.7 8.8 26.6 9.8 21.8 15 41.8 17.3 66.9 5.1 55.1-17.2 113.3-58.4 152.6-25.1 24.1-47.8 36.9-85.2 48.3-28.9 8.8-60.8 11-93.9 6.5-55.1-7.6-109.7-38-143.6-79.9-14.6-18.1-17.1-20.6-20-20-2.5.6-2.9.1-7.7-10.2-13-27.8-17.5-46.2-19.4-78-1.2-21.3-.8-26.9 2.8-47.3 1.4-8 2.6-17 2.7-20l.1-5.5-7-3.8c-7-3.8-7-3.8-17-3.4-7.6.3-11.9 1.1-17.9 3.1-4.3 1.6-8.1 2.4-8.6 1.9-.4-.4-2.2-4.6-4-9.2-3.7-9.4-8.1-15.4-16.2-22.3-4.8-4.1-6.9-5.1-13.9-6.8-10.4-2.5-18.9-2.5-25.4-.1-2.7 1-8.1 3-12 4.5l-7 2.6-3-3.4c-1.6-1.8-5.6-6.3-8.8-10-7.1-8-15.5-12.7-27.4-15.1-7.2-1.5-8.6-1.5-15.2-.1-8.6 1.8-13.3 4-23.8 10.8-4.2 2.8-8.3 5.2-9 5.5-.7.3-5.1-2.2-9.8-5.6-10.9-8-14-9.2-24.9-9.8-16.6-1-26.7 2.5-38.2 13-3.6 3.3-8.5 8.8-11 12.3s-4.8 6.4-5 6.4c-.3 0-3.3-1.2-6.7-2.6-17.6-7.4-26.2-7.3-42.9.6-5.7 2.6-7.6 4.3-13 11.1-8.1 10.2-12.8 18.5-12.8 22.7 0 3.8-1 4.3-11 6.2-10.7 1.9-24 8.8-32.2 16.7-8.7 8.3-12.9 14.8-15.7 23.7-2.5 8-2.7 15.5-.6 26.3.8 4.3 1.5 8.3 1.5 8.8 0 .6-2.6 2-5.7 3-11 3.8-23.6 14.2-28.3 23.4-2.9 5.9-5.3 17.2-5.3 24.7.1 9.8 2.5 17.4 8.4 26 2.7 4 4.9 7.6 4.9 8 0 .4-3.3 4.1-7.3 8.3-11.9 12.5-16.2 23.5-15.5 39.6.3 7.2.8 9.1 4.5 16.6 4.1 8.3 12.1 17.4 19.3 22l2.5 1.6-2.3 5.4c-7.5 17.2-9.3 26.4-7.2 37.6 3.2 17.5 15.8 32.1 33.3 38.5 3.8 1.4 5.6 2.5 5.3 3.4-.3.7-1 6.1-1.6 11.9-1.5 13.3-.2 21.8 4.7 31.7 7.6 15.2 24.6 25.8 41.4 25.8h4.7l.4 12.2c.4 11.8.6 12.6 4.2 20.2 4.6 9.6 13.3 18.6 22.6 23.6 6.2 3.3 7 3.4 19.9 4l13.4.5 2.4 8.9c4.6 17.5 12.1 28.4 24.5 35.4 10.2 5.8 21.5 7.1 40.2 4.6l4.2-.6 1.3 4.3c3.9 13.1 13.8 25.8 24.6 31.6 13.5 7.1 25.9 8 41.6 3l7.5-2.4 4.3 7.3c5.8 10 12.1 16.8 19.4 20.8 16.7 9.3 29.4 10 46.2 2.6 9.9-4.3 8.7-4.6 15.1 3.6 10.7 13.7 20.4 19.5 36.4 21.8l8.5 1.2.3 5 .3 5-6.7 1.1c-7.6 1.3-18.9 6.5-24.8 11.4-9.9 8.3-17.6 24.2-17.6 36.6 0 6.3 2.8 17.4 6.5 25.7l2.4 5.5-7.7 6.2c-11.9 9.8-15.9 15.1-19.3 26.1-1.7 5.4-2 8.8-1.7 17 .3 9.1.7 11.1 3.4 16.8 1.8 3.7 6.4 10.3 10.9 15.4l7.9 8.9-1.8 3.1c-9.6 16.5-12.8 28.1-10.9 39.2 1.5 8.8 6.8 19.4 13.4 26.7 5.4 6.1 12.5 10.3 24.7 14.7l6.2 2.3v10.1c0 12 1.8 21.4 5.6 28.7 3.7 7.5 13.6 16.9 22 21l6.9 3.4h17.1l17-.1 3.7 8.1c9.5 20.5 25.6 31.6 46.2 31.7 11.9 0 21.9-3.7 32.2-11.9 2.3-1.8 4.5-3.3 5-3.3s2.5 1.6 4.4 3.6c5.7 6 16.6 13.1 23.7 15.5 12.2 4.1 27.9 2.3 39.2-4.3 6.5-3.9 13.4-11.5 21.6-23.6.1-.2 2.6 1 5.5 2.7 7.3 4.1 15.7 6.1 25.4 6.1 23.2 0 38.8-11.6 47.4-35.5l2.2-6.1 14.7.1c12.7 0 15.5-.3 20.5-2.2 6.4-2.4 16.3-9.2 21.6-14.7 4.3-4.4 2.5-5.8 22.4 17.4 20.9 24.3 56.6 59.8 75.7 75.1 29.9 24.1 39.4 30.7 62 43.3 18 10 28.7 14.7 43 18.6 29.3 8.2 45.2 9.1 69.1 4 12.7-2.7 15.7-3.8 27.3-9.8 14-7.1 21-12.7 33.5-26.6 10.1-11.2 15.6-20.4 19.6-32.7 2.8-8.6 3.5-12.5 3.5-18.5v-7.7l-3.3 4.4c-1.9 2.4-6.7 9.3-10.7 15.4-17 25.4-38.9 40.5-68.5 47.1-11.6 2.6-34.6 2.4-48-.4-28.9-6.2-67.3-24.4-88.5-42.1l-3.5-3 7-3.1c3.9-1.8 11.5-5.4 17-8 27.1-13 52.6-40.3 69.8-74.5 5.6-11.1 11.2-26.3 10.1-27.4-.3-.3-5.8 4.8-12.2 11.4-24.6 25.3-45.5 41.9-68.2 54.3-23.2 12.7-54.4 20-63.7 14.9-1.8-.9-11.5-9.9-21.5-19.8l-18.3-18.2 11-3.7c20.7-7 31.9-13.7 46.5-27.6 11-10.6 18.9-21.1 26.1-34.7 4.2-8 10.9-24.2 10.9-26.3 0-.3-6.6 5.8-14.7 13.6-8.2 7.9-18.5 17.3-23.1 20.9-23.9 19.1-49.1 30.1-69.7 30.4-7.4.2-9.5-.1-11.9-1.7-5.5-3.8-29.7-38.1-27.9-39.6.5-.4 4.7-2.1 9.5-3.8 12.3-4.4 17.5-7.2 26.2-14.2 8.4-6.8 17.7-17.8 23-27.3 3.8-6.7 8.9-19.4 8.4-20.8-.2-.5-5 3.4-10.8 8.6-14.6 13.3-25.6 21.4-36.9 27.3-11.6 6-21.4 9.2-28.7 9.2-4.8 0-5.5-.3-7.7-3.3-4.1-5.4-10.3-16.7-20.3-36.7-45.7-91.9-70.3-199.6-77.5-339.8-2.1-40.6.3-121.3 4.7-163.5l.7-5.7h12.1c21.6 0 43.3-2.9 63.6-8.4 3-.9 5.6-1.4 5.8-1.2.6.7 4.1 21.1 13.2 76.8 4.9 30.1 10.4 62.5 12 72 17.8 99.6 48.7 182.6 93.5 250.8 11 16.8 35.2 49.4 48.6 65.5 11.7 14 40.3 43 53.4 54 6.1 5.1 14.2 12.1 18 15.5 8.3 7.4 22.7 18.7 31 24.3 3.3 2.2 9.6 7.4 14 11.5s14.7 12.7 23 19.1c8.2 6.3 22.2 18.6 31 27.3l16.2 15.7 7-4.4c3.9-2.4 9.8-5.7 13.1-7.4l6-3.1 7.5 7c11.4 10.7 15.1 12 36.1 12.7l17.2.6 4.1-2.6c2.2-1.4 7.8-6.4 12.4-11.1l8.4-8.5 11.4 5.7 11.3 5.7h11.2c9 0 12.5-.5 18.6-2.4 6.9-2.3 8.2-3.2 17-11.7 5.7-5.6 10.7-11.5 12.5-14.8 1.7-3.1 3.5-5.6 4.1-5.6.6 0 3.1.7 5.4 1.5 3 1.1 8.4 1.5 18.9 1.5h14.7l6.9-5.5c8.1-6.4 12.9-11.6 18.6-20.2 3.7-5.7 4.1-6.9 5.2-17l1.2-10.8 10.5-1.1c8.5-.9 11.8-1.7 17.2-4.4 14.1-6.9 24-17.6 27.8-29.8 2.6-8.2 2.5-16.4-.1-29.1-1.1-5.7-1.9-10.4-1.7-10.6.1-.1 4.2-2.6 8.9-5.3 9.6-5.7 17.5-13.6 21.5-21.5 5.5-10.7 6.6-25.3 2.8-36.4-.9-2.6-4.5-8.9-8-14.2-3.5-5.3-6.4-10.3-6.4-11.1 0-.9 2.3-5.2 5.1-9.5 7.2-11.4 9.5-16.2 10.9-22.8 1.7-8.5-.2-18.1-6.1-29.8-4.1-8.2-7.1-11.3-18.6-19l-10.3-6.9 3.5-7c3.3-6.6 3.5-7.5 3.5-17.3 0-27.8-11.8-42.1-41.6-50.5l-9.2-2.6-.7-7c-1.1-11.1-2.2-15.4-7.2-26-3.2-6.9-4.6-11.1-4.5-13.7.2-4.7 5-16.9 6.6-16.9.7 0 5.2 1.3 10 3l8.8 2.9 8.3-1.9c16.2-3.8 20.5-5.7 27.3-12.4 8.1-7.7 12.6-16.4 14.9-28.6l1.8-9h8c29.3-.1 49.6-16.9 52.4-43.5.5-5 .9-11.2.8-14l-.2-4.9 10.7-2.6c11.4-2.7 15.1-4.8 24-13.3 12.5-12.1 16.5-27.5 12.2-47.2-.8-3.9-1.7-8.1-2-9.5-.5-2.3.2-2.9 7.3-6.4 9.2-4.7 20.5-15.4 24.1-22.9 1.3-2.6 3.1-8.2 4-12.5 1.5-7.3 1.5-8.5-.1-16.3-1.1-5.6-3.1-11.4-6.2-17.4l-4.5-9 3.7-2.9c7.1-5.6 15.2-14.4 17.7-19.5 9.6-18.9 6.6-40.8-7.9-56.8l-5.2-5.8 4.4-5c6.2-7 12-19.3 13.5-28.7 1.5-9.8.2-15.7-5.8-27.7-4.3-8.6-10-15.2-19.3-22.1l-3.3-2.5 3.8-6.5c7.9-13.6 9.5-26.8 4.9-40.7-4.6-13.6-12.7-22.7-26.5-29.8-8.6-4.4-8.4-4-5.5-12.4 5.7-17 .8-37.9-11.9-50.7-6-5.9-11.5-8.9-23.6-12.9-4.7-1.5-9.1-3.2-9.7-3.8-.9-.6-1.3-3.9-1.3-9.9 0-15.6-3.6-25.3-13.4-35.7-9.9-10.5-17.3-13.8-33.1-14.7-15.8-.9-15-.5-16.3-7.6-1.7-9.2-7.2-19.9-13.7-26.8-6.9-7.2-16.4-12.1-29.2-15.1l-9.1-2.1-7.9 3c-14.3 5.5-13.3 5.7-19.1-5-7.2-13.4-18.6-23.5-28.3-25.2-7.2-1.3-26.4 1.2-37.8 4.9-13.8 4.5-15.1 4.5-18.7-.3-3.9-5.1-5.8-6.6-14.4-11.1-11.1-5.8-20.2-7.6-31-6.2zm-125.1 139.7c3.6.9 10.2 3.3 14.6 5.4 20.2 9.4 33.5 25 39.7 46.7 3 10.2 3.2 28.7.4 37.8-8.6 29-28.7 47.8-57.3 53.7-11.2 2.3-20.6 1.9-32.9-1.2-34.9-9-59.2-45.8-53.4-81 2.9-17.5 8.7-28.8 21.5-41.6 7.7-7.8 10.4-9.8 18.5-13.7 5.2-2.6 12.7-5.3 16.5-6.1 9.6-2 24.4-2 32.4 0zm209.6 4.4c28.2 9 48.1 28.6 57.7 57 3.2 9.2 3.3 10.1 3.2 25.5 0 14.8-.2 16.6-2.8 24.5-9.4 28.5-28.4 47.6-56.6 57.1-8.9 3-10.4 3.2-24.5 3.3-12.7.1-16.2-.3-22.8-2.2-31.6-9.1-53.2-31.4-61.3-63.2-2.8-11.2-2.7-31.8.4-42.3 8.6-29.8 32.8-53.2 62.7-60.7 11.2-2.8 33.7-2.3 44 1zm100.9 166c17.2 2.5 31.8 9.9 44.1 22.4 15.1 15.4 22.5 32.9 22.5 53.6 0 35-23.6 65.4-58 74.7-9.6 2.6-28 2.4-38.4-.6-28.1-7.8-47.4-27.5-54.6-55.6-2.6-10-2.9-26.2-.7-35.5 9.1-38.4 46.8-64.5 85.1-59zM370.3 601.9c15.4 4.2 29.1 18.1 34.3 34.8 7.5 24.3-4.1 51.4-26.7 62.6-9.7 4.7-16.2 6.1-27.4 5.5-27.7-1.6-49.5-25-49.5-53.2 0-14.1 5-25.7 15.4-36.2 7.2-7.2 15.9-12.6 23.4-14.3 6.9-1.7 23.2-1.2 30.5.8zm-90.2 121c20.4 5.2 39.5 20.1 48.8 38 6.8 13.1 8.6 20.6 8.6 35.6-.1 14.9-1.5 21.2-7.6 34.2-25.3 53.4-100.1 58-133.1 8.2-8.2-12.3-12-26-12-42.4 0-21.1 7.3-38.6 22.2-53.5 19.5-19.5 46.5-26.9 73.1-20.1zm1221.8 29.6c18.6 4.4 34.2 20 38.6 38.6 4.4 18.8-.6 36.9-14 50.5-16.9 17.1-45.4 20.3-65.6 7.3-7-4.4-15.8-14.4-19.1-21.6-1.6-3.4-3.7-9.7-4.6-14.2-5.6-27.1 13.5-55.4 41.3-61.1 6.5-1.3 16.5-1.1 23.4.5zm-85.4 140.6c15 5.6 23.3 18.9 22.3 35.8-.8 13-7.9 23.7-19.2 29-7.5 3.5-13.4 4.3-21.6 3-12.4-2-21-8.2-26.5-19.1-3-6.1-3.5-8-3.5-14.3 0-10.2 2.4-16.9 9.5-25.9 8.1-10.3 24.6-13.9 39-8.5zm-1077 13.5c21.6 5.6 36.8 23.9 39 46.9 2.5 26.8-18.9 53.2-45.9 56.5-17.2 2.1-31.8-3.1-44.6-16-11.3-11.3-15.7-23.2-14.7-40 1-17.4 8.7-31 22.9-40.8 4.7-3.2 12.4-6.6 16.8-7.5 5.9-1.1 20.9-.6 26.5.9zM442 1016.1c22.4 3.6 36 26.5 28.2 47.4-5.7 15.2-20 24.4-36.2 23.3-12.8-.9-23.6-8.2-29.2-19.6-3-6-3.3-7.5-3.3-15.7 0-7.7.4-9.8 2.6-14.5 5.1-10.7 13.2-17.5 24.1-20.4 6.6-1.8 6-1.8 13.8-.5zm960.7 42.7c11.4 3.6 20.7 11.6 25.6 22 2.9 6.1 3.2 7.6 3.1 15.7-.1 6.8-.7 10.4-2.3 14.8-3 7.6-11 16.3-18.7 20.2-5.1 2.5-7.2 3-15.9 3.3-15.2.6-24-3.2-33-14.3-7.7-9.3-10.2-25.9-5.8-37.2 4.5-11.5 14.1-20.6 25.9-24.3 7.5-2.4 13.7-2.5 21.1-.2zm-849.1 21.6c15 7 17.7 27.5 5.2 39.6-9.6 9.4-28.1 7.6-35.7-3.3-8.7-12.6-5-29.4 7.8-36 7.2-3.6 15.4-3.7 22.7-.3zm886.6 89c22 6.9 37.8 24.5 42 46.6 1.5 7.9.4 22.3-2.2 29.7-5.9 17-20.1 30.9-37.6 36.9-15.9 5.5-36.8 2.8-51-6.5-10.5-6.8-18.7-17.2-23.4-29.6-3.1-8.3-3.9-25.3-1.5-34.4 5.6-21.8 23-38.8 44.5-43.6 7.7-1.7 22.2-1.3 29.2.9zm-834.4 41.2c15.9 7.9 18.6 27.7 5.4 39.6-12.3 11.1-32.2 6.6-38.7-8.8-1.9-4.5-2-14.4-.2-18.7 5.4-12.7 21-18.3 33.5-12.1zm-12.6 91.1c16 7.5 24.5 24.2 20.4 40.2-2.7 10.7-10.2 19.8-20.2 24.7-5.1 2.5-7.1 2.9-14.4 2.9-7.2 0-9.4-.4-14.5-2.8-14.1-6.6-22.4-20.4-21.2-35.3 2-25.1 27.4-40.2 49.9-29.7zm754.3 2.4c16.7 3.1 31.8 15.3 37.4 30.3 6 16.2 2.2 37.7-8.7 49.1-10.9 11.5-22.3 16.5-37.5 16.5-13.5 0-25.2-5.4-35.5-16.3-19.6-20.9-15.1-56 9.3-72.1 11-7.4 22.5-9.8 35-7.5zm-123.3 35.6c7 3.1 13 9.3 16.6 17.1 3.6 7.7 3.5 17.2-.1 25.5-3.6 8-11.5 16.1-18.4 18.7-21.5 8-45.3-8.1-45.3-30.9 0-24.8 24.5-40.5 47.2-30.4zm-568.3 44.4c12.6 2.9 26.3 14.2 32.2 26.6 2.8 5.9 3.3 8.1 3.7 16.8.8 17.1-3.7 28.7-14.8 38.7-29.8 26.8-76.5 8.5-80.6-31.6-1.9-18.2 10.1-38.8 27.2-46.8 3.8-1.8 8.7-3.5 10.9-3.9 6.3-1 16.6-1 21.4.2zm114.3 23.7c6 3 12.2 9.2 15 15.1 3 6.5 3.1 18.8.2 25.2-4.1 8.7-11.9 15.6-19.9 17.3-15.1 3.3-29-2.7-35.9-15.4-8.9-16.3.3-38.3 18.2-44.1 5.1-1.6 17.3-.6 22.4 1.9z"/><path d="M639.4 565.1c-24 8.1-35.3 37.1-23.6 60.3 3.4 6.9 12.5 15.7 19.6 19 17 8 35.7 4.7 49.1-8.8 8.3-8.3 11.5-15.3 12.2-26.7 1.1-16.5-5.3-30-18.4-39-10.2-7.1-26.3-9-38.9-4.8zm8.3 19.9c4.1 2.4 5.5 5.1 5.5 10.5.2 9.8-9.8 16.3-18.2 12-6.6-3.4-9-11.6-5.5-18.5 3-5.8 12-7.8 18.2-4zM817 599.8c-18.6 6.2-30.2 22-30.2 41.2 0 17 9.2 31.5 24.7 39.1 6.7 3.2 7.5 3.4 18 3.4 14.2 0 19.9-2.1 29.1-10.7 22.8-21.4 17.1-57.7-11.2-71-8.6-4-21.7-4.9-30.4-2zm6.1 20.5c4.1 2.8 5.9 6 5.9 11 0 5.3-2.5 9.6-6.5 11.3-8 3.3-15.8.2-18.5-7.3-1.3-3.9-1.2-4.6.5-8.9 3.4-7.9 11.8-10.7 18.6-6.1zM667 695.3c0 6.1 3.4 18.9 6.7 25 1.5 2.9 6.2 8.7 10.4 12.9 8.6 8.8 16.7 13.2 30.4 16.9 10.7 2.9 28.4 3.1 37 .5 17.3-5.2 32.2-18.5 38-33.9 2-5.4 1.4-6.7-3.5-6.7-2 .1-3.2 1.2-5.8 5.9-7.2 12.5-17.9 21.6-29.4 25.3-4.2 1.2-9.1 1.8-16.2 1.8-19.3 0-34.6-6-45.9-17.9-7-7.5-10-13.8-11.9-25.5-.7-3.9-1.7-7.4-2.3-7.8-.5-.4-2.5-.8-4.2-.8-3.2 0-3.3.1-3.3 4.3zM37.5 1677c-.9 1.5.4 3 2.6 3s2.4-1.1.7-2.8c-1.5-1.5-2.5-1.5-3.3-.2z"/></svg>