<svg class="mca8aec043_logo mc85003806_logo" xmlns="http://www.w3.org/2000/svg" viewBox="0 0 578.88 273.16" data-reactid="6"><path fill="#ffffff" d="M541.13 85.77c20.81 0 37.75-17.35 37.75-38.67 0-20.47-17.29-37.75-37.75-37.75s-37.75 17.29-37.75 37.75c0 21.32 16.93 38.67 37.75 38.67z" data-reactid="7"></path><path fill="#ffffff" d="M504.06 99.34v110.45l-34-73.84c15.37-19.23 21.63-46.36 22.33-65.87v-16h-60.23v15.4c-.84 19.64-7.22 28.8-24.78 34.51v-104l-61.27.06v44.31c-22.33-22.78-53.14-34.78-89.56-34.78-39.87 0-72.9 13.81-95.5 39.91a118.05 118.05 0 0 0-17.12 26.33c-14.81-15.21-35.42-21.7-59.89-21.7h-84v219.04h56v-52.28h28c24.39 0 45-8.14 59.88-23.54a116.3 116.3 0 0 0 17.71 27.1c22.62 25.63 55.44 39.14 94.92 39.14 38.64 0 71-13.5 93.61-39.06 1.57-1.77 3.06-3.62 4.51-5.48h52.71v-54.35l8.08-1.86 26 56.24H578.2V99.34h-74.14zm-418 63.81H55.98v-52.72h29.25c7.58 0 20.23 5.11 20.23 25.32.05 13.01-5.33 27.4-19.36 27.4zm169.92 60.14c-47.23 0-85.65-39.37-85.65-87.75 0-46.42 39.21-85.65 85.65-85.65s85.65 39.23 85.65 85.65c0 48.38-38.42 87.75-85.65 87.75z" data-reactid="8"></path><path fill="#ffffff" d="M255.97 141.88c-37.88 0-57 6.65-64.93 8.69 6.62 30.49 33.21 53.36 64.93 53.36s58.32-22.87 64.93-53.36c-7.89-2.04-27.05-8.69-64.93-8.69z" data-reactid="9"></path></svg>
